<?xml version="1.0" encoding="UTF-8" standalone="no"?>
<!DOCTYPE svg PUBLIC "-//W3C//DTD SVG 1.1//EN"
 "http://www.w3.org/Graphics/SVG/1.1/DTD/svg11.dtd">
<!-- Generated by graphviz version 9.0.0 (20230911.1827)
 -->
<!-- Title: src_compile Pages: 1 -->
<svg width="742pt" height="462pt"
 viewBox="0.00 0.00 742.00 461.50" xmlns="http://www.w3.org/2000/svg" xmlns:xlink="http://www.w3.org/1999/xlink">
<g id="graph0" class="graph" transform="scale(1 1) rotate(0) translate(4 457.5)">
<title>src_compile</title>
<polygon fill="white" stroke="none" points="-4,4 -4,-457.5 738,-457.5 738,4 -4,4"/>
<g id="clust1" class="cluster">
<title>cluster_osbuild_getting_started</title>
<polygon fill="lightgrey" stroke="black" points="302,-270.5 302,-445.5 462,-445.5 462,-270.5 302,-270.5"/>
<text text-anchor="middle" x="382" y="-428.2" font-family="Times,serif" font-size="14.00">osbuild&#45;</text>
<text text-anchor="middle" x="382" y="-411.7" font-family="Times,serif" font-size="14.00">getting&#45;started</text>
</g>
<g id="clust2" class="cluster">
<title>cluster_osbuild</title>
<polygon fill="lightgrey" stroke="black" points="8,-164.5 8,-262.5 132,-262.5 132,-164.5 8,-164.5"/>
<text text-anchor="middle" x="70" y="-245.2" font-family="Times,serif" font-size="14.00">osbuild</text>
<text text-anchor="middle" x="70" y="-228.7" font-family="Times,serif" font-size="14.00"> </text>
</g>
<g id="clust3" class="cluster">
<title>cluster_osbuild_composer</title>
<polygon fill="lightgrey" stroke="black" points="140,-92.5 140,-262.5 462,-262.5 462,-92.5 140,-92.5"/>
<text text-anchor="middle" x="301" y="-245.2" font-family="Times,serif" font-size="14.00">osbuild&#45;composer</text>
<text text-anchor="middle" x="301" y="-228.7" font-family="Times,serif" font-size="14.00"> </text>
</g>
<g id="clust4" class="cluster">
<title>cluster_image_builder</title>
<polygon fill="lightgrey" stroke="black" points="470,-92.5 470,-262.5 594,-262.5 594,-92.5 470,-92.5"/>
<text text-anchor="middle" x="532" y="-245.2" font-family="Times,serif" font-size="14.00">image&#45;builder</text>
<text text-anchor="middle" x="532" y="-228.7" font-family="Times,serif" font-size="14.00"> </text>
</g>
<g id="clust5" class="cluster">
<title>cluster_image_builder_frontend</title>
<polygon fill="lightgrey" stroke="black" points="602,-164.5 602,-262.5 726,-262.5 726,-164.5 602,-164.5"/>
<text text-anchor="middle" x="664" y="-245.2" font-family="Times,serif" font-size="14.00">image&#45;builder&#45;</text>
<text text-anchor="middle" x="664" y="-228.7" font-family="Times,serif" font-size="14.00">fronted</text>
</g>
<g id="clust6" class="cluster">
<title>cluster_pulp_client</title>
<polygon fill="lightgrey" stroke="black" points="219,-8 219,-84.5 343,-84.5 343,-8 219,-8"/>
<text text-anchor="middle" x="281" y="-67.2" font-family="Times,serif" font-size="14.00">pulp&#45;client</text>
</g>
<g id="clust7" class="cluster">
<title>cluster_images</title>
<polygon fill="lightgrey" stroke="black" points="351,-8 351,-84.5 425,-84.5 425,-8 351,-8"/>
<text text-anchor="middle" x="388" y="-67.2" font-family="Times,serif" font-size="14.00">images</text>
</g>
<g id="clust8" class="cluster">
<title>cluster_community_gateway</title>
<polygon fill="lightgrey" stroke="black" points="445,-8 445,-84.5 605,-84.5 605,-8 445,-8"/>
<text text-anchor="middle" x="525" y="-67.2" font-family="Times,serif" font-size="14.00">community&#45;gateway</text>
</g>
<!-- osbuild_getting_started_makefile -->
<g id="node1" class="node">
<title>osbuild_getting_started_makefile</title>
<polygon fill="white" stroke="black" points="454,-319.5 310,-319.5 310,-278.5 454,-278.5 454,-319.5"/>
<text text-anchor="middle" x="382" y="-302.2" font-family="Times,serif" font-size="14.00">make</text>
<text text-anchor="middle" x="382" y="-285.7" font-family="Times,serif" font-size="14.00">service_containers</text>
</g>
<!-- osbuild_makefile -->
<g id="node3" class="node">
<title>osbuild_makefile</title>
<polygon fill="white" stroke="black" points="124,-213.5 16,-213.5 16,-172.5 124,-172.5 124,-213.5"/>
<text text-anchor="middle" x="70" y="-196.2" font-family="Times,serif" font-size="14.00">make</text>
<text text-anchor="middle" x="70" y="-179.7" font-family="Times,serif" font-size="14.00">container</text>
</g>
<!-- osbuild_getting_started_makefile&#45;&gt;osbuild_makefile -->
<g id="edge6" class="edge">
<title>osbuild_getting_started_makefile&#45;&gt;osbuild_makefile</title>
<path fill="none" stroke="black" d="M309.74,-292.78C248.31,-287.39 165.52,-277.63 136,-262.5 117.92,-253.23 101.97,-237.05 90.28,-222.74"/>
<polygon fill="black" stroke="black" points="93.07,-220.63 84.17,-214.89 87.55,-224.93 93.07,-220.63"/>
</g>
<!-- osbuild_composer_makefile_composer -->
<g id="node4" class="node">
<title>osbuild_composer_makefile_composer</title>
<polygon fill="white" stroke="black" points="454,-213.5 310,-213.5 310,-172.5 454,-172.5 454,-213.5"/>
<text text-anchor="middle" x="382" y="-196.2" font-family="Times,serif" font-size="14.00">make</text>
<text text-anchor="middle" x="382" y="-179.7" font-family="Times,serif" font-size="14.00">container_composer</text>
</g>
<!-- osbuild_getting_started_makefile&#45;&gt;osbuild_composer_makefile_composer -->
<g id="edge8" class="edge">
<title>osbuild_getting_started_makefile&#45;&gt;osbuild_composer_makefile_composer</title>
<path fill="none" stroke="black" d="M382,-278.44C382,-263.43 382,-242.41 382,-225.1"/>
<polygon fill="black" stroke="black" points="385.5,-225.34 382,-215.34 378.5,-225.34 385.5,-225.34"/>
</g>
<!-- osbuild_composer_makefile_worker -->
<g id="node5" class="node">
<title>osbuild_composer_makefile_worker</title>
<polygon fill="white" stroke="black" points="292,-213.5 148,-213.5 148,-172.5 292,-172.5 292,-213.5"/>
<text text-anchor="middle" x="220" y="-196.2" font-family="Times,serif" font-size="14.00">make</text>
<text text-anchor="middle" x="220" y="-179.7" font-family="Times,serif" font-size="14.00">container_worker</text>
</g>
<!-- osbuild_getting_started_makefile&#45;&gt;osbuild_composer_makefile_worker -->
<g id="edge7" class="edge">
<title>osbuild_getting_started_makefile&#45;&gt;osbuild_composer_makefile_worker</title>
<path fill="none" stroke="black" d="M330.3,-278.02C320.31,-273.42 310.12,-268.19 301,-262.5 282.19,-250.77 263.16,-234.93 248.27,-221.43"/>
<polygon fill="black" stroke="black" points="250.85,-219.05 241.13,-214.83 246.1,-224.19 250.85,-219.05"/>
</g>
<!-- image_builder_makefile -->
<g id="node7" class="node">
<title>image_builder_makefile</title>
<polygon fill="white" stroke="black" points="586,-213.5 478,-213.5 478,-172.5 586,-172.5 586,-213.5"/>
<text text-anchor="middle" x="532" y="-196.2" font-family="Times,serif" font-size="14.00">make</text>
<text text-anchor="middle" x="532" y="-179.7" font-family="Times,serif" font-size="14.00">container</text>
</g>
<!-- osbuild_getting_started_makefile&#45;&gt;image_builder_makefile -->
<g id="edge9" class="edge">
<title>osbuild_getting_started_makefile&#45;&gt;image_builder_makefile</title>
<path fill="none" stroke="black" d="M437.9,-278.14C447.63,-273.64 457.39,-268.42 466,-262.5 482.19,-251.38 497.58,-235.8 509.43,-222.31"/>
<polygon fill="black" stroke="black" points="511.86,-224.85 515.69,-214.97 506.53,-220.31 511.86,-224.85"/>
</g>
<!-- image_builder_frontend_makefile -->
<g id="node9" class="node">
<title>image_builder_frontend_makefile</title>
<polygon fill="white" stroke="black" points="718,-213.5 610,-213.5 610,-172.5 718,-172.5 718,-213.5"/>
<text text-anchor="middle" x="664" y="-196.2" font-family="Times,serif" font-size="14.00">make</text>
<text text-anchor="middle" x="664" y="-179.7" font-family="Times,serif" font-size="14.00">container</text>
</g>
<!-- osbuild_getting_started_makefile&#45;&gt;image_builder_frontend_makefile -->
<g id="edge10" class="edge">
<title>osbuild_getting_started_makefile&#45;&gt;image_builder_frontend_makefile</title>
<path fill="none" stroke="black" d="M454.43,-297.44C498.18,-294.43 553.84,-285.69 598,-262.5 615.87,-253.12 631.72,-237.08 643.41,-222.88"/>
<polygon fill="black" stroke="black" points="646.1,-225.12 649.53,-215.09 640.6,-220.79 646.1,-225.12"/>
</g>
<!-- osbuild_getting_started_run -->
<g id="node2" class="node">
<title>osbuild_getting_started_run</title>
<polygon fill="white" stroke="black" points="454,-396.5 310,-396.5 310,-355.5 454,-355.5 454,-396.5"/>
<text text-anchor="middle" x="382" y="-379.2" font-family="Times,serif" font-size="14.00">make</text>
<text text-anchor="middle" x="382" y="-362.7" font-family="Times,serif" font-size="14.00">run_service</text>
</g>
<!-- osbuild_getting_started_run&#45;&gt;osbuild_getting_started_makefile -->
<g id="edge5" class="edge">
<title>osbuild_getting_started_run&#45;&gt;osbuild_getting_started_makefile</title>
<path fill="none" stroke="black" d="M382,-355.29C382,-347.95 382,-339.41 382,-331.28"/>
<polygon fill="black" stroke="black" points="385.5,-331.35 382,-321.35 378.5,-331.35 385.5,-331.35"/>
</g>
<!-- osbuild_composer_go -->
<g id="node6" class="node">
<title>osbuild_composer_go</title>
<polygon fill="white" stroke="black" points="411.38,-136.5 352.62,-136.5 352.62,-100.5 411.38,-100.5 411.38,-136.5"/>
<text text-anchor="middle" x="382" y="-113.45" font-family="Times,serif" font-size="14.00">go code</text>
</g>
<!-- osbuild_composer_makefile_composer&#45;&gt;osbuild_composer_go -->
<g id="edge12" class="edge">
<title>osbuild_composer_makefile_composer&#45;&gt;osbuild_composer_go</title>
<path fill="none" stroke="black" stroke-dasharray="5,2" d="M382,-172.19C382,-164.75 382,-156.14 382,-148.07"/>
<polygon fill="black" stroke="black" points="385.5,-148.33 382,-138.33 378.5,-148.33 385.5,-148.33"/>
</g>
<!-- osbuild_composer_makefile_worker&#45;&gt;osbuild_makefile -->
<g id="edge14" class="edge">
<title>osbuild_composer_makefile_worker:s&#45;&gt;osbuild_makefile:s</title>
<path fill="none" stroke="black" stroke-dasharray="5,2" d="M220,-171C220,-141.44 102.06,-138.09 75.34,-160.96"/>
<polygon fill="black" stroke="black" points="72.31,-159.19 70.71,-169.66 78.49,-162.48 72.31,-159.19"/>
</g>
<!-- osbuild_composer_makefile_worker&#45;&gt;osbuild_composer_go -->
<g id="edge11" class="edge">
<title>osbuild_composer_makefile_worker&#45;&gt;osbuild_composer_go</title>
<path fill="none" stroke="black" stroke-dasharray="5,2" d="M264.27,-172.19C288.64,-161.28 318.64,-147.86 342.26,-137.29"/>
<polygon fill="black" stroke="black" points="343.54,-140.55 351.23,-133.27 340.68,-134.16 343.54,-140.55"/>
</g>
<!-- pulp_client_go -->
<g id="node10" class="node">
<title>pulp_client_go</title>
<polygon fill="white" stroke="black" points="335,-52 227,-52 227,-16 335,-16 335,-52"/>
<text text-anchor="middle" x="281" y="-28.95" font-family="Times,serif" font-size="14.00">go code</text>
</g>
<!-- osbuild_composer_go&#45;&gt;pulp_client_go -->
<g id="edge2" class="edge">
<title>osbuild_composer_go&#45;&gt;pulp_client_go</title>
<path fill="none" stroke="black" stroke-dasharray="5,2" d="M360.58,-100C346.12,-88.19 326.83,-72.44 310.86,-59.39"/>
<polygon fill="black" stroke="black" points="313.52,-57.04 303.56,-53.43 309.09,-62.47 313.52,-57.04"/>
</g>
<!-- images_go -->
<g id="node11" class="node">
<title>images_go</title>
<polygon fill="white" stroke="black" points="417.38,-52 358.62,-52 358.62,-16 417.38,-16 417.38,-52"/>
<text text-anchor="middle" x="388" y="-28.95" font-family="Times,serif" font-size="14.00">go code</text>
</g>
<!-- osbuild_composer_go&#45;&gt;images_go -->
<g id="edge3" class="edge">
<title>osbuild_composer_go&#45;&gt;images_go</title>
<path fill="none" stroke="black" stroke-dasharray="5,2" d="M383.27,-100C384.04,-89.5 385.03,-75.89 385.9,-63.83"/>
<polygon fill="black" stroke="black" points="389.38,-64.21 386.62,-53.98 382.4,-63.7 389.38,-64.21"/>
</g>
<!-- image_builder_go -->
<g id="node8" class="node">
<title>image_builder_go</title>
<polygon fill="white" stroke="black" points="554.38,-136.5 495.62,-136.5 495.62,-100.5 554.38,-100.5 554.38,-136.5"/>
<text text-anchor="middle" x="525" y="-113.45" font-family="Times,serif" font-size="14.00">go code</text>
</g>
<!-- image_builder_makefile&#45;&gt;image_builder_go -->
<g id="edge13" class="edge">
<title>image_builder_makefile&#45;&gt;image_builder_go</title>
<path fill="none" stroke="black" stroke-dasharray="5,2" d="M530.09,-172.19C529.37,-164.75 528.54,-156.14 527.76,-148.07"/>
<polygon fill="black" stroke="black" points="531.26,-147.94 526.82,-138.33 524.3,-148.62 531.26,-147.94"/>
</g>
<!-- image_builder_go&#45;&gt;osbuild_composer_go -->
<g id="edge1" class="edge">
<title>image_builder_go&#45;&gt;osbuild_composer_go</title>
<path fill="none" stroke="black" stroke-dasharray="5,2" d="M495.32,-118.5C471.23,-118.5 447.14,-118.5 423.05,-118.5"/>
<polygon fill="black" stroke="black" points="423.12,-115 413.12,-118.5 423.12,-122 423.12,-115"/>
</g>
<!-- community_gateway_go -->
<g id="node12" class="node">
<title>community_gateway_go</title>
<polygon fill="white" stroke="black" points="597,-52 453,-52 453,-16 597,-16 597,-52"/>
<text text-anchor="middle" x="525" y="-28.95" font-family="Times,serif" font-size="14.00">go code</text>
</g>
<!-- image_builder_go&#45;&gt;community_gateway_go -->
<g id="edge4" class="edge">
<title>image_builder_go&#45;&gt;community_gateway_go</title>
<path fill="none" stroke="black" stroke-dasharray="5,2" d="M525,-100C525,-89.5 525,-75.89 525,-63.83"/>
<polygon fill="black" stroke="black" points="528.5,-63.98 525,-53.98 521.5,-63.98 528.5,-63.98"/>
</g>
</g>
</svg>
