<?xml version="1.0" encoding="UTF-8" standalone="no"?>
<!DOCTYPE svg PUBLIC "-//W3C//DTD SVG 1.1//EN"
 "http://www.w3.org/Graphics/SVG/1.1/DTD/svg11.dtd">
<!-- Generated by graphviz version 9.0.0 (20230911.1827)
 -->
<!-- Title: src_compile Pages: 1 -->
<svg width="610pt" height="462pt"
 viewBox="0.00 0.00 610.00 461.50" xmlns="http://www.w3.org/2000/svg" xmlns:xlink="http://www.w3.org/1999/xlink">
<g id="graph0" class="graph" transform="scale(1 1) rotate(0) translate(4 457.5)">
<title>src_compile</title>
<polygon fill="white" stroke="none" points="-4,4 -4,-457.5 606,-457.5 606,4 -4,4"/>
<g id="clust1" class="cluster">
<title>cluster_osbuild_getting_started</title>
<polygon fill="lightgrey" stroke="black" points="221,-270.5 221,-445.5 381,-445.5 381,-270.5 221,-270.5"/>
<text text-anchor="middle" x="301" y="-428.2" font-family="Times,serif" font-size="14.00">osbuild&#45;</text>
<text text-anchor="middle" x="301" y="-411.7" font-family="Times,serif" font-size="14.00">getting&#45;started</text>
</g>
<g id="clust2" class="cluster">
<title>cluster_osbuild</title>
<polygon fill="lightgrey" stroke="black" points="8,-164.5 8,-262.5 132,-262.5 132,-164.5 8,-164.5"/>
<text text-anchor="middle" x="70" y="-245.2" font-family="Times,serif" font-size="14.00">osbuild</text>
<text text-anchor="middle" x="70" y="-228.7" font-family="Times,serif" font-size="14.00"> </text>
</g>
<g id="clust3" class="cluster">
<title>cluster_osbuild_composer</title>
<polygon fill="lightgrey" stroke="black" points="140,-92.5 140,-262.5 462,-262.5 462,-92.5 140,-92.5"/>
<text text-anchor="middle" x="301" y="-245.2" font-family="Times,serif" font-size="14.00">osbuild&#45;composer</text>
<text text-anchor="middle" x="301" y="-228.7" font-family="Times,serif" font-size="14.00"> </text>
</g>
<g id="clust4" class="cluster">
<title>cluster_weldr_client</title>
<polygon fill="lightgrey" stroke="black" points="470,-164.5 470,-246 594,-246 594,-164.5 470,-164.5"/>
<text text-anchor="middle" x="532" y="-228.7" font-family="Times,serif" font-size="14.00">weldr&#45;client</text>
</g>
<g id="clust5" class="cluster">
<title>cluster_pulp_client</title>
<polygon fill="lightgrey" stroke="black" points="185,-8 185,-84.5 309,-84.5 309,-8 185,-8"/>
<text text-anchor="middle" x="247" y="-67.2" font-family="Times,serif" font-size="14.00">pulp&#45;client</text>
</g>
<g id="clust6" class="cluster">
<title>cluster_images</title>
<polygon fill="lightgrey" stroke="black" points="317,-8 317,-84.5 391,-84.5 391,-8 317,-8"/>
<text text-anchor="middle" x="354" y="-67.2" font-family="Times,serif" font-size="14.00">images</text>
</g>
<!-- osbuild_getting_started_makefile -->
<g id="node1" class="node">
<title>osbuild_getting_started_makefile</title>
<polygon fill="white" stroke="black" points="373,-319.5 229,-319.5 229,-278.5 373,-278.5 373,-319.5"/>
<text text-anchor="middle" x="301" y="-302.2" font-family="Times,serif" font-size="14.00">make</text>
<text text-anchor="middle" x="301" y="-285.7" font-family="Times,serif" font-size="14.00">onprem_containers</text>
</g>
<!-- osbuild_makefile -->
<g id="node3" class="node">
<title>osbuild_makefile</title>
<polygon fill="white" stroke="black" points="124,-213.5 16,-213.5 16,-172.5 124,-172.5 124,-213.5"/>
<text text-anchor="middle" x="70" y="-196.2" font-family="Times,serif" font-size="14.00">make</text>
<text text-anchor="middle" x="70" y="-179.7" font-family="Times,serif" font-size="14.00">container</text>
</g>
<!-- osbuild_getting_started_makefile&#45;&gt;osbuild_makefile -->
<g id="edge4" class="edge">
<title>osbuild_getting_started_makefile&#45;&gt;osbuild_makefile</title>
<path fill="none" stroke="black" d="M228.69,-291.83C198.59,-286.94 164.16,-278.18 136,-262.5 118.48,-252.75 102.74,-236.84 91.02,-222.81"/>
<polygon fill="black" stroke="black" points="93.85,-220.74 84.87,-215.12 88.39,-225.12 93.85,-220.74"/>
</g>
<!-- osbuild_composer_makefile_composer -->
<g id="node4" class="node">
<title>osbuild_composer_makefile_composer</title>
<polygon fill="white" stroke="black" points="454,-213.5 310,-213.5 310,-172.5 454,-172.5 454,-213.5"/>
<text text-anchor="middle" x="382" y="-196.2" font-family="Times,serif" font-size="14.00">make</text>
<text text-anchor="middle" x="382" y="-179.7" font-family="Times,serif" font-size="14.00">container_composer</text>
</g>
<!-- osbuild_getting_started_makefile&#45;&gt;osbuild_composer_makefile_composer -->
<g id="edge6" class="edge">
<title>osbuild_getting_started_makefile&#45;&gt;osbuild_composer_makefile_composer</title>
<path fill="none" stroke="black" d="M316.24,-278.44C328.49,-262.71 345.88,-240.38 359.7,-222.63"/>
<polygon fill="black" stroke="black" points="362.24,-225.06 365.63,-215.02 356.72,-220.76 362.24,-225.06"/>
</g>
<!-- osbuild_composer_makefile_worker -->
<g id="node5" class="node">
<title>osbuild_composer_makefile_worker</title>
<polygon fill="white" stroke="black" points="292,-213.5 148,-213.5 148,-172.5 292,-172.5 292,-213.5"/>
<text text-anchor="middle" x="220" y="-196.2" font-family="Times,serif" font-size="14.00">make</text>
<text text-anchor="middle" x="220" y="-179.7" font-family="Times,serif" font-size="14.00">container_worker</text>
</g>
<!-- osbuild_getting_started_makefile&#45;&gt;osbuild_composer_makefile_worker -->
<g id="edge5" class="edge">
<title>osbuild_getting_started_makefile&#45;&gt;osbuild_composer_makefile_worker</title>
<path fill="none" stroke="black" d="M285.76,-278.44C273.51,-262.71 256.12,-240.38 242.3,-222.63"/>
<polygon fill="black" stroke="black" points="245.28,-220.76 236.37,-215.02 239.76,-225.06 245.28,-220.76"/>
</g>
<!-- weldr_client_makefile -->
<g id="node7" class="node">
<title>weldr_client_makefile</title>
<polygon fill="white" stroke="black" points="586,-213.5 478,-213.5 478,-172.5 586,-172.5 586,-213.5"/>
<text text-anchor="middle" x="532" y="-196.2" font-family="Times,serif" font-size="14.00">make</text>
<text text-anchor="middle" x="532" y="-179.7" font-family="Times,serif" font-size="14.00">container</text>
</g>
<!-- osbuild_getting_started_makefile&#45;&gt;weldr_client_makefile -->
<g id="edge7" class="edge">
<title>osbuild_getting_started_makefile&#45;&gt;weldr_client_makefile</title>
<path fill="none" stroke="black" d="M373.31,-291.83C403.41,-286.94 437.84,-278.18 466,-262.5 483.52,-252.75 499.26,-236.84 510.98,-222.81"/>
<polygon fill="black" stroke="black" points="513.61,-225.12 517.13,-215.12 508.15,-220.74 513.61,-225.12"/>
</g>
<!-- osbuild_getting_started_run -->
<g id="node2" class="node">
<title>osbuild_getting_started_run</title>
<polygon fill="white" stroke="black" points="373,-396.5 229,-396.5 229,-355.5 373,-355.5 373,-396.5"/>
<text text-anchor="middle" x="301" y="-379.2" font-family="Times,serif" font-size="14.00">make</text>
<text text-anchor="middle" x="301" y="-362.7" font-family="Times,serif" font-size="14.00">run_onprem</text>
</g>
<!-- osbuild_getting_started_run&#45;&gt;osbuild_getting_started_makefile -->
<g id="edge3" class="edge">
<title>osbuild_getting_started_run&#45;&gt;osbuild_getting_started_makefile</title>
<path fill="none" stroke="black" d="M301,-355.29C301,-347.95 301,-339.41 301,-331.28"/>
<polygon fill="black" stroke="black" points="304.5,-331.35 301,-321.35 297.5,-331.35 304.5,-331.35"/>
</g>
<!-- osbuild_composer_go -->
<g id="node6" class="node">
<title>osbuild_composer_go</title>
<polygon fill="white" stroke="black" points="330.38,-136.5 271.62,-136.5 271.62,-100.5 330.38,-100.5 330.38,-136.5"/>
<text text-anchor="middle" x="301" y="-113.45" font-family="Times,serif" font-size="14.00">go code</text>
</g>
<!-- osbuild_composer_makefile_composer&#45;&gt;osbuild_composer_go -->
<g id="edge9" class="edge">
<title>osbuild_composer_makefile_composer&#45;&gt;osbuild_composer_go</title>
<path fill="none" stroke="black" stroke-dasharray="5,2" d="M359.87,-172.19C350.3,-163.63 339,-153.52 328.88,-144.45"/>
<polygon fill="black" stroke="black" points="331.26,-141.89 321.48,-137.83 326.59,-147.11 331.26,-141.89"/>
</g>
<!-- osbuild_composer_makefile_worker&#45;&gt;osbuild_makefile -->
<g id="edge10" class="edge">
<title>osbuild_composer_makefile_worker:s&#45;&gt;osbuild_makefile:s</title>
<path fill="none" stroke="black" stroke-dasharray="5,2" d="M220,-171C220,-141.44 102.06,-138.09 75.34,-160.96"/>
<polygon fill="black" stroke="black" points="72.31,-159.19 70.71,-169.66 78.49,-162.48 72.31,-159.19"/>
</g>
<!-- osbuild_composer_makefile_worker&#45;&gt;osbuild_composer_go -->
<g id="edge8" class="edge">
<title>osbuild_composer_makefile_worker&#45;&gt;osbuild_composer_go</title>
<path fill="none" stroke="black" stroke-dasharray="5,2" d="M242.13,-172.19C251.7,-163.63 263,-153.52 273.12,-144.45"/>
<polygon fill="black" stroke="black" points="275.41,-147.11 280.52,-137.83 270.74,-141.89 275.41,-147.11"/>
</g>
<!-- pulp_client_go -->
<g id="node8" class="node">
<title>pulp_client_go</title>
<polygon fill="white" stroke="black" points="301,-52 193,-52 193,-16 301,-16 301,-52"/>
<text text-anchor="middle" x="247" y="-28.95" font-family="Times,serif" font-size="14.00">go code</text>
</g>
<!-- osbuild_composer_go&#45;&gt;pulp_client_go -->
<g id="edge1" class="edge">
<title>osbuild_composer_go&#45;&gt;pulp_client_go</title>
<path fill="none" stroke="black" stroke-dasharray="5,2" d="M289.55,-100C282.32,-88.96 272.83,-74.46 264.65,-61.96"/>
<polygon fill="black" stroke="black" points="267.67,-60.19 259.26,-53.74 261.81,-64.02 267.67,-60.19"/>
</g>
<!-- images_go -->
<g id="node9" class="node">
<title>images_go</title>
<polygon fill="white" stroke="black" points="383.38,-52 324.62,-52 324.62,-16 383.38,-16 383.38,-52"/>
<text text-anchor="middle" x="354" y="-28.95" font-family="Times,serif" font-size="14.00">go code</text>
</g>
<!-- osbuild_composer_go&#45;&gt;images_go -->
<g id="edge2" class="edge">
<title>osbuild_composer_go&#45;&gt;images_go</title>
<path fill="none" stroke="black" stroke-dasharray="5,2" d="M312.24,-100C319.34,-88.96 328.65,-74.46 336.68,-61.96"/>
<polygon fill="black" stroke="black" points="339.5,-64.05 341.96,-53.74 333.61,-60.27 339.5,-64.05"/>
</g>
</g>
</svg>
